<mxfile host="app.diagrams.net" modified="2022-04-29T13:24:48.826Z" agent="5.0 (Windows NT 10.0; Win64; x64) AppleWebKit/537.36 (KHTML, like Gecko) Chrome/98.0.4758.141 YaBrowser/22.3.3.852 Yowser/2.5 Safari/537.36" etag="8B1HdaFdVT3zVXmGMa5J" version="17.4.6" type="github">
  <diagram name="Page-1" id="edf60f1a-56cd-e834-aa8a-f176f3a09ee4">
    <mxGraphModel dx="1082" dy="1523" grid="1" gridSize="10" guides="1" tooltips="1" connect="1" arrows="1" fold="1" page="1" pageScale="1" pageWidth="1100" pageHeight="850" background="none" math="0" shadow="0">
      <root>
        <mxCell id="0" />
        <mxCell id="1" parent="0" />
        <mxCell id="-2-cMGuEdAPrwcFwQ8xO-6" style="edgeStyle=orthogonalEdgeStyle;rounded=0;orthogonalLoop=1;jettySize=auto;html=1;exitX=0.5;exitY=1;exitDx=0;exitDy=0;entryX=0.5;entryY=0;entryDx=0;entryDy=0;" edge="1" parent="1" source="-2-cMGuEdAPrwcFwQ8xO-1" target="-2-cMGuEdAPrwcFwQ8xO-2">
          <mxGeometry relative="1" as="geometry" />
        </mxCell>
        <mxCell id="-2-cMGuEdAPrwcFwQ8xO-1" value="НАЧАЛО" style="rounded=1;whiteSpace=wrap;html=1;" vertex="1" parent="1">
          <mxGeometry x="380" y="30" width="120" height="60" as="geometry" />
        </mxCell>
        <mxCell id="-2-cMGuEdAPrwcFwQ8xO-7" style="edgeStyle=orthogonalEdgeStyle;rounded=0;orthogonalLoop=1;jettySize=auto;html=1;exitX=0.5;exitY=1;exitDx=0;exitDy=0;entryX=0.5;entryY=0;entryDx=0;entryDy=0;" edge="1" parent="1" source="-2-cMGuEdAPrwcFwQ8xO-2" target="-2-cMGuEdAPrwcFwQ8xO-3">
          <mxGeometry relative="1" as="geometry" />
        </mxCell>
        <mxCell id="-2-cMGuEdAPrwcFwQ8xO-2" value="&lt;div&gt;m1[] = {2, 8, 9, 1, 5};&lt;/div&gt;&lt;div&gt;maxPos[] = {0,0};&lt;/div&gt;" style="shape=parallelogram;perimeter=parallelogramPerimeter;whiteSpace=wrap;html=1;fixedSize=1;" vertex="1" parent="1">
          <mxGeometry x="345" y="130" width="190" height="60" as="geometry" />
        </mxCell>
        <mxCell id="-2-cMGuEdAPrwcFwQ8xO-8" value="ДА" style="edgeStyle=orthogonalEdgeStyle;rounded=0;orthogonalLoop=1;jettySize=auto;html=1;exitX=0.5;exitY=1;exitDx=0;exitDy=0;" edge="1" parent="1" source="-2-cMGuEdAPrwcFwQ8xO-3" target="-2-cMGuEdAPrwcFwQ8xO-5">
          <mxGeometry relative="1" as="geometry" />
        </mxCell>
        <mxCell id="-2-cMGuEdAPrwcFwQ8xO-16" value="НЕТ" style="edgeStyle=orthogonalEdgeStyle;rounded=0;orthogonalLoop=1;jettySize=auto;html=1;exitX=1;exitY=0.5;exitDx=0;exitDy=0;entryX=0.5;entryY=0;entryDx=0;entryDy=0;" edge="1" parent="1" source="-2-cMGuEdAPrwcFwQ8xO-3" target="-2-cMGuEdAPrwcFwQ8xO-14">
          <mxGeometry x="-0.812" relative="1" as="geometry">
            <Array as="points">
              <mxPoint x="650" y="260" />
              <mxPoint x="650" y="540" />
              <mxPoint x="440" y="540" />
            </Array>
            <mxPoint as="offset" />
          </mxGeometry>
        </mxCell>
        <mxCell id="-2-cMGuEdAPrwcFwQ8xO-3" value="i = 1; i&amp;lt;m1.length; i++" style="shape=hexagon;perimeter=hexagonPerimeter2;whiteSpace=wrap;html=1;fixedSize=1;" vertex="1" parent="1">
          <mxGeometry x="335" y="230" width="210" height="60" as="geometry" />
        </mxCell>
        <mxCell id="-2-cMGuEdAPrwcFwQ8xO-10" value="ДА" style="edgeStyle=orthogonalEdgeStyle;rounded=0;orthogonalLoop=1;jettySize=auto;html=1;exitX=0.5;exitY=1;exitDx=0;exitDy=0;entryX=0.5;entryY=0;entryDx=0;entryDy=0;" edge="1" parent="1" source="-2-cMGuEdAPrwcFwQ8xO-5" target="-2-cMGuEdAPrwcFwQ8xO-9">
          <mxGeometry relative="1" as="geometry" />
        </mxCell>
        <mxCell id="-2-cMGuEdAPrwcFwQ8xO-13" value="НЕТ" style="edgeStyle=orthogonalEdgeStyle;rounded=0;orthogonalLoop=1;jettySize=auto;html=1;exitX=1;exitY=0.5;exitDx=0;exitDy=0;entryX=0;entryY=0.5;entryDx=0;entryDy=0;" edge="1" parent="1" source="-2-cMGuEdAPrwcFwQ8xO-5" target="-2-cMGuEdAPrwcFwQ8xO-3">
          <mxGeometry x="-0.8994" relative="1" as="geometry">
            <Array as="points">
              <mxPoint x="580" y="370" />
              <mxPoint x="580" y="520" />
              <mxPoint x="280" y="520" />
              <mxPoint x="280" y="260" />
            </Array>
            <mxPoint as="offset" />
          </mxGeometry>
        </mxCell>
        <mxCell id="-2-cMGuEdAPrwcFwQ8xO-5" value="m1[ i ] &amp;gt; m1 [maxpos[0]]" style="rhombus;whiteSpace=wrap;html=1;" vertex="1" parent="1">
          <mxGeometry x="350" y="330" width="180" height="80" as="geometry" />
        </mxCell>
        <mxCell id="-2-cMGuEdAPrwcFwQ8xO-12" style="edgeStyle=orthogonalEdgeStyle;rounded=0;orthogonalLoop=1;jettySize=auto;html=1;exitX=0.5;exitY=1;exitDx=0;exitDy=0;entryX=0;entryY=0.5;entryDx=0;entryDy=0;" edge="1" parent="1" source="-2-cMGuEdAPrwcFwQ8xO-9" target="-2-cMGuEdAPrwcFwQ8xO-3">
          <mxGeometry relative="1" as="geometry">
            <Array as="points">
              <mxPoint x="440" y="520" />
              <mxPoint x="280" y="520" />
              <mxPoint x="280" y="260" />
            </Array>
          </mxGeometry>
        </mxCell>
        <mxCell id="-2-cMGuEdAPrwcFwQ8xO-9" value="maxpos [0] = i" style="rounded=0;whiteSpace=wrap;html=1;" vertex="1" parent="1">
          <mxGeometry x="380" y="440" width="120" height="60" as="geometry" />
        </mxCell>
        <mxCell id="-2-cMGuEdAPrwcFwQ8xO-18" value="ДА" style="edgeStyle=orthogonalEdgeStyle;rounded=0;orthogonalLoop=1;jettySize=auto;html=1;exitX=0.5;exitY=1;exitDx=0;exitDy=0;entryX=0.5;entryY=0;entryDx=0;entryDy=0;" edge="1" parent="1" source="-2-cMGuEdAPrwcFwQ8xO-14" target="-2-cMGuEdAPrwcFwQ8xO-17">
          <mxGeometry relative="1" as="geometry" />
        </mxCell>
        <mxCell id="-2-cMGuEdAPrwcFwQ8xO-28" value="НЕТ" style="edgeStyle=orthogonalEdgeStyle;rounded=0;orthogonalLoop=1;jettySize=auto;html=1;exitX=1;exitY=0.5;exitDx=0;exitDy=0;entryX=0.5;entryY=0;entryDx=0;entryDy=0;" edge="1" parent="1" source="-2-cMGuEdAPrwcFwQ8xO-14" target="-2-cMGuEdAPrwcFwQ8xO-27">
          <mxGeometry x="-0.8282" relative="1" as="geometry">
            <Array as="points">
              <mxPoint x="650" y="595" />
              <mxPoint x="650" y="980" />
              <mxPoint x="440" y="980" />
            </Array>
            <mxPoint x="1" as="offset" />
          </mxGeometry>
        </mxCell>
        <mxCell id="-2-cMGuEdAPrwcFwQ8xO-14" value="&lt;span&gt;i = 1; i&amp;lt;m1.length; i++&lt;/span&gt;" style="shape=hexagon;perimeter=hexagonPerimeter2;whiteSpace=wrap;html=1;fixedSize=1;" vertex="1" parent="1">
          <mxGeometry x="332.5" y="570" width="215" height="50" as="geometry" />
        </mxCell>
        <mxCell id="-2-cMGuEdAPrwcFwQ8xO-20" value="ДА" style="edgeStyle=orthogonalEdgeStyle;rounded=0;orthogonalLoop=1;jettySize=auto;html=1;exitX=0.5;exitY=1;exitDx=0;exitDy=0;entryX=0.5;entryY=0;entryDx=0;entryDy=0;" edge="1" parent="1" source="-2-cMGuEdAPrwcFwQ8xO-17" target="-2-cMGuEdAPrwcFwQ8xO-19">
          <mxGeometry relative="1" as="geometry" />
        </mxCell>
        <mxCell id="-2-cMGuEdAPrwcFwQ8xO-24" value="НЕТ" style="edgeStyle=orthogonalEdgeStyle;rounded=0;orthogonalLoop=1;jettySize=auto;html=1;exitX=1;exitY=0.5;exitDx=0;exitDy=0;entryX=0;entryY=0.5;entryDx=0;entryDy=0;" edge="1" parent="1" source="-2-cMGuEdAPrwcFwQ8xO-17" target="-2-cMGuEdAPrwcFwQ8xO-14">
          <mxGeometry x="-0.8713" relative="1" as="geometry">
            <mxPoint x="680" y="870" as="targetPoint" />
            <Array as="points">
              <mxPoint x="600" y="700" />
              <mxPoint x="600" y="960" />
              <mxPoint x="280" y="960" />
              <mxPoint x="280" y="595" />
            </Array>
            <mxPoint as="offset" />
          </mxGeometry>
        </mxCell>
        <mxCell id="-2-cMGuEdAPrwcFwQ8xO-17" value="i &amp;lt;&amp;gt; maxpos[0]" style="rhombus;whiteSpace=wrap;html=1;" vertex="1" parent="1">
          <mxGeometry x="370" y="660" width="140" height="80" as="geometry" />
        </mxCell>
        <mxCell id="-2-cMGuEdAPrwcFwQ8xO-22" value="ДА" style="edgeStyle=orthogonalEdgeStyle;rounded=0;orthogonalLoop=1;jettySize=auto;html=1;exitX=0.5;exitY=1;exitDx=0;exitDy=0;" edge="1" parent="1" source="-2-cMGuEdAPrwcFwQ8xO-19" target="-2-cMGuEdAPrwcFwQ8xO-21">
          <mxGeometry relative="1" as="geometry" />
        </mxCell>
        <mxCell id="-2-cMGuEdAPrwcFwQ8xO-25" value="НЕТ" style="edgeStyle=orthogonalEdgeStyle;rounded=0;orthogonalLoop=1;jettySize=auto;html=1;exitX=1;exitY=0.5;exitDx=0;exitDy=0;entryX=0;entryY=0.5;entryDx=0;entryDy=0;" edge="1" parent="1" source="-2-cMGuEdAPrwcFwQ8xO-19" target="-2-cMGuEdAPrwcFwQ8xO-14">
          <mxGeometry x="-0.9331" relative="1" as="geometry">
            <mxPoint x="780" y="690" as="targetPoint" />
            <Array as="points">
              <mxPoint x="600" y="810" />
              <mxPoint x="600" y="960" />
              <mxPoint x="280" y="960" />
              <mxPoint x="280" y="595" />
            </Array>
            <mxPoint as="offset" />
          </mxGeometry>
        </mxCell>
        <mxCell id="-2-cMGuEdAPrwcFwQ8xO-19" value="m1[ i ] &amp;gt; m1 [maxpos[0]]" style="rhombus;whiteSpace=wrap;html=1;" vertex="1" parent="1">
          <mxGeometry x="350" y="770" width="180" height="80" as="geometry" />
        </mxCell>
        <mxCell id="-2-cMGuEdAPrwcFwQ8xO-23" style="edgeStyle=orthogonalEdgeStyle;rounded=0;orthogonalLoop=1;jettySize=auto;html=1;exitX=0.5;exitY=1;exitDx=0;exitDy=0;entryX=0;entryY=0.5;entryDx=0;entryDy=0;" edge="1" parent="1" source="-2-cMGuEdAPrwcFwQ8xO-21" target="-2-cMGuEdAPrwcFwQ8xO-14">
          <mxGeometry relative="1" as="geometry">
            <Array as="points">
              <mxPoint x="440" y="960" />
              <mxPoint x="280" y="960" />
              <mxPoint x="280" y="595" />
            </Array>
          </mxGeometry>
        </mxCell>
        <mxCell id="-2-cMGuEdAPrwcFwQ8xO-21" value="maxpos [1] = i" style="rounded=0;whiteSpace=wrap;html=1;" vertex="1" parent="1">
          <mxGeometry x="380" y="880" width="120" height="60" as="geometry" />
        </mxCell>
        <mxCell id="-2-cMGuEdAPrwcFwQ8xO-31" style="edgeStyle=orthogonalEdgeStyle;rounded=0;orthogonalLoop=1;jettySize=auto;html=1;entryX=0.5;entryY=0;entryDx=0;entryDy=0;" edge="1" parent="1" source="-2-cMGuEdAPrwcFwQ8xO-27" target="-2-cMGuEdAPrwcFwQ8xO-29">
          <mxGeometry relative="1" as="geometry" />
        </mxCell>
        <mxCell id="-2-cMGuEdAPrwcFwQ8xO-27" value="m1 [maxpos[1]]" style="shape=document;whiteSpace=wrap;html=1;boundedLbl=1;" vertex="1" parent="1">
          <mxGeometry x="380" y="1010" width="120" height="80" as="geometry" />
        </mxCell>
        <mxCell id="-2-cMGuEdAPrwcFwQ8xO-29" value="КОНЕЦ" style="rounded=1;whiteSpace=wrap;html=1;" vertex="1" parent="1">
          <mxGeometry x="380" y="1130" width="120" height="60" as="geometry" />
        </mxCell>
        <mxCell id="-2-cMGuEdAPrwcFwQ8xO-32" value="&lt;span style=&quot;font-size: 14px; font-style: normal; letter-spacing: normal; text-indent: 0px; text-transform: none; word-spacing: 0px; display: inline; float: none;&quot;&gt;Напишите программу, находящую второй по величине элемент массива.&lt;/span&gt;" style="text;whiteSpace=wrap;html=1;fontColor=default;labelBackgroundColor=none;fontSize=14;fontStyle=1" vertex="1" parent="1">
          <mxGeometry x="180" y="-10" width="520" height="30" as="geometry" />
        </mxCell>
      </root>
    </mxGraphModel>
  </diagram>
</mxfile>
